PathFileType	4	(X/Y/Z)	C:\Users\dbl\Desktop\20210112\20210112\bx_n_0_501-Unnamed.trc
DataRate	CameraRate	NumFrames	NumMarkers	Units	OrigDataRate	OrigDataStartFrame	OrigNumFrames
50.00	50.00	       22	0	mm	50.00	1	       339
Frame#	Time	
		

1	0.000																																																	-795.49091	180.42735	184.65356	-761.54108	224.02431	204.96368	-588.87061	184.61299	174.45854	-882.75946	295.96274	144.50542	-546.65997	214.33144	165.43314	-640.39063	274.43796	159.38176	-602.32642	275.01944	159.66725	-528.15442	303.96283	146.35419													-794.42126	33.63062	174.69156				-876.12219	-78.89765	141.41621													-719.02344	142.84624	217.82487	-678.47070	154.19696	158.17119										-517.69672	-72.81759	143.20711	
2	0.020				-686.80121	269.27219	744.73303																												-546.80682	214.23822	165.60518													-795.57526	180.56731	184.53658	-761.56586	224.14093	205.05028	-588.86475	184.43225	174.28749	-882.74536	296.02060	144.44994	-589.56195	184.14983	174.47200	-640.57935	274.38858	159.51448	-602.29474	274.78690	159.37489	-528.38684	304.23920	146.33282													-794.27277	33.77128	174.93124				-876.12219	-78.89765	141.41621													-719.15436	142.89206	217.67596													-517.67474	-72.89974	143.29080	
3	0.040				-686.69904	269.32806	744.59589													-678.47070	154.19696	158.17119													-546.85034	214.14238	165.39702													-795.64069	180.40361	184.60686	-761.60736	224.23199	205.00119	-588.86475	184.43225	174.28749	-882.55072	296.24280	144.74985				-640.63293	274.35590	159.58887	-602.13733	274.86221	159.64864	-528.20984	304.20206	146.31906													-794.36334	33.61810	174.98911				-876.12219	-78.89765	141.41621													-719.16376	143.00819	217.53072													-517.69672	-72.81759	143.20711	
4	0.060				-686.69904	269.32806	744.59589													-678.47070	154.19696	158.17119													-546.69519	214.42087	165.45706													-795.54761	180.37245	184.59534	-761.56738	224.31340	205.00462	-588.93011	184.45612	174.22061	-882.68158	296.13046	144.56700				-640.48676	274.36612	159.33282	-602.24548	274.52090	159.50922	-528.30585	304.11691	146.33821													-794.38257	33.76842	174.90237				-876.31458	-78.92422	141.43286													-719.08533	143.00246	217.43449													-517.69672	-72.81759	143.20711	
5	0.080				-686.59576	269.34180	744.67358													-678.47070	154.19696	158.17119													-546.72394	214.22116	165.45569													-795.70874	180.63394	184.60973	-761.64545	224.16525	204.96518	-588.85712	184.54738	174.42696	-882.56494	295.86871	144.46423				-640.48676	274.36612	159.33282	-602.32513	274.80508	159.57686	-528.38684	304.23920	146.33282													-794.22620	33.78754	174.98694				-876.12219	-78.89765	141.41621													-719.15436	142.89206	217.67596													-517.67474	-72.89974	143.29080	
6	0.100				-686.56647	269.41388	744.63464													-678.47070	154.19696	158.17119													-546.65997	214.33144	165.43314													-795.56848	180.66319	184.65303	-761.81635	224.19662	204.94662	-588.87933	184.61954	174.34627	-882.75586	296.10339	144.51614				-640.48676	274.36612	159.33282	-602.28375	274.73938	159.55627	-528.24139	304.00241	146.24747													-794.29907	33.84784	174.97397				-876.12219	-78.89765	141.41621													-719.15436	142.89206	217.67596													-517.67474	-72.89974	143.29080	
7	0.120				-686.58496	269.63113	744.55872													-678.47070	154.19696	158.17119													-546.92413	214.35065	165.66457													-795.69495	180.59662	184.69298	-761.60907	224.12617	205.09596	-588.99713	184.68819	174.34210	-882.77734	296.19269	144.57732				-640.72644	274.53275	159.61961	-602.31763	274.70425	159.47177	-528.32233	304.12469	146.24208													-794.24902	33.76702	174.90645				-876.12219	-78.89765	141.41621													-719.16376	143.00819	217.53072													-517.73004	-72.74894	143.12654	
8	0.140				-686.49072	269.63785	744.37036													-678.47070	154.19696	158.17119													-546.65521	214.09805	165.45258													-795.71460	180.50250	184.45103	-761.71808	224.19685	204.89444	-589.07312	184.50206	174.26076	-882.75586	296.10339	144.51614				-640.47650	274.44562	159.44881	-602.28052	274.84933	159.42041	-528.42279	304.29593	146.39896													-794.36963	33.69475	175.00414				-876.12219	-78.89765	141.41621													-719.27826	143.12927	217.44537													-517.74561	-72.93533	143.15428	
9	0.160				-686.47925	269.74539	744.59033													-678.47070	154.19696	158.17119													-546.78595	214.18491	165.30391													-795.66766	180.63484	184.50006	-761.60852	224.29849	204.89278	-589.04480	184.51794	174.33943	-882.66284	295.96414	144.44598				-640.48676	274.36612	159.33282	-602.19391	274.93845	159.66162	-528.16870	304.17886	146.32680													-794.38318	33.80934	175.09937				-876.12219	-78.89765	141.41621													-719.15436	142.89206	217.67596													-517.69672	-72.81759	143.20711	
10	0.180				-686.51996	269.56577	744.40936													-678.47070	154.19696	158.17119													-546.69379	214.26366	165.57159													-795.57556	180.87096	184.70190	-761.76349	224.21526	205.13394	-588.87933	184.61954	174.34627	-882.66089	295.95770	144.43553				-640.53931	274.38464	159.42609	-602.25757	274.78925	159.53638	-528.20984	304.20206	146.31906													-794.51434	33.78074	175.04619				-876.12219	-78.89765	141.41621													-719.15436	142.89206	217.67596													-517.64813	-72.98016	143.19891	
11	0.200				-686.45392	269.58203	744.68182													-678.57019	154.16235	158.45267													-546.64117	214.35127	165.48010													-795.65704	180.68765	184.65781	-761.12317	224.07896	204.96895	-589.06390	184.40901	174.21185	-882.66302	296.10306	144.60963				-640.54681	274.32568	159.43575	-602.27869	274.80646	159.69058	-528.30627	304.11957	146.42525													-794.30688	33.79411	175.03813				-876.12219	-78.89765	141.41621													-719.15436	142.89206	217.67596													-517.69708	-73.09790	143.14609	
12	0.220				-686.46991	269.70160	744.65674													-678.47070	154.19696	158.17119													-546.99396	214.39162	165.60362													-795.65637	180.72404	184.60979	-761.73517	224.25536	205.17812	-588.97937	184.49406	174.40631	-882.75586	296.10339	144.51614				-640.48676	274.36612	159.33282	-602.43634	274.81012	159.55710	-528.27087	304.22754	146.42125													-794.53021	33.81886	175.02687				-876.12219	-78.89765	141.41621													-719.15436	142.89206	217.67596													-517.65887	-72.84397	143.19699	
13	0.240				-686.38409	269.69992	744.46490													-678.47070	154.19696	158.17119													-546.75128	214.21968	165.46875													-795.54968	180.62703	184.74643	-761.07819	224.06975	204.90125	-588.85712	184.54738	174.42696	-882.67236	296.06561	144.58119				-640.48676	274.36612	159.33282	-602.36578	274.82001	159.45903	-528.19678	303.96454	146.27711													-794.47437	33.81469	175.11057				-876.12219	-78.89765	141.41621													-719.08533	143.00246	217.43449													-517.67474	-72.89974	143.29080	
14	0.260				-686.43915	269.69510	744.57184													-678.47070	154.19696	158.17119													-546.89368	214.17949	165.51619													-795.64954	180.56230	184.64149	-761.70776	224.12257	205.00276	-588.97937	184.49406	174.40631	-882.63263	296.08612	144.57532				-640.57935	274.38858	159.51448	-602.31763	274.70425	159.47177	-528.13885	304.07614	146.58961													-794.13989	33.82132	174.86186				-876.33990	-78.88496	141.49979													-719.08533	143.00246	217.43449													-517.72363	-73.01749	143.23798	
15	0.280				-686.27588	269.61258	744.55811																												-546.75128	214.21968	165.46875													-795.64319	180.53014	184.63332	-761.64172	224.30525	205.03049	-588.87061	184.61299	174.45854	-882.56689	296.15085	144.56075				-640.48676	274.36612	159.33282	-602.24854	274.55844	159.47560	-528.23615	304.02277	146.32814													-794.41486	33.73660	175.14253				-876.12219	-78.89765	141.41621													-719.27826	143.12927	217.44537													-517.67474	-72.89974	143.29080	
16	0.300				-686.33215	269.75409	744.67059																												-546.86865	214.27679	165.22876													-795.66833	180.59846	184.54810	-760.91107	223.82257	204.89957	-588.97937	184.49406	174.40631	-882.56006	296.11014	144.61603				-640.48676	274.36612	159.33282	-602.23737	274.62640	159.61858	-528.12286	304.16248	146.42578													-794.36047	33.80659	175.13406				-876.12219	-78.89765	141.41621													-719.27826	143.12927	217.44537													-517.74561	-72.93533	143.15428	
17	0.320				-686.29852	269.74753	744.54340																												-546.78595	214.18491	165.30391													-795.65186	180.64760	184.61136	-761.72455	224.27075	204.82335	-588.92249	184.57126	174.36009	-882.54260	296.22430	144.69029				-640.61664	274.46893	159.42110	-602.31763	274.70425	159.47177	-528.24188	304.07635	146.21542													-794.41339	33.86699	175.09340				-876.12219	-78.89765	141.41621													-719.15436	142.89206	217.67596													-517.75024	-72.81028	143.30702	
18	0.340				-686.27588	269.61258	744.55811													-658.04425	20.03124	518.60834													-546.64117	214.35127	165.48010													-795.66833	180.59846	184.54810	-761.71704	224.28708	204.91528	-589.04480	184.51794	174.33943	-882.62695	295.99487	144.56000				-640.57935	274.38858	159.51448	-602.31567	274.67419	159.32790	-528.26074	304.00513	146.39989													-794.41595	33.87373	175.09671				-876.14905	-78.79788	141.54057													-719.27826	143.12927	217.44537													-517.70453	-72.66581	143.22118	
19	0.360				-686.28308	269.80829	744.49609													-657.25165	19.75744	518.73706													-546.82501	214.12746	165.43861													-795.69409	180.67877	184.50891	-761.64288	224.17235	204.90977	-588.99847	184.38513	174.27873	-882.61945	296.00604	144.51439				-640.57935	274.38858	159.51448	-602.32574	274.59875	159.36241	-528.12360	304.06708	146.38847													-794.45142	33.77290	174.99489				-876.14905	-78.79788	141.54057													-719.15436	142.89206	217.67596													-517.77893	-72.86668	143.07372	
20	0.380				-686.08398	269.31052	744.40753													-657.02026	19.62907	518.94080													-546.78217	214.16730	165.58365				-678.47070	154.19696	158.17119							-795.59473	180.66402	184.63145	-761.60834	224.19719	205.05214	-588.97937	184.49406	174.40631	-882.68158	296.13046	144.56700				-640.57935	274.38858	159.51448	-602.13379	274.63214	159.62633	-528.38281	304.18555	146.46870													-794.47437	33.81469	175.11057				-876.12219	-78.89765	141.41621													-719.15436	142.89206	217.67596													-517.68085	-72.76183	143.11328	
21	0.400				-685.82196	269.54456	744.44293													-656.99902	19.45722	519.14545													-546.69519	214.42087	165.45706				-678.47070	154.19696	158.17119							-795.65704	180.68765	184.65781	-761.51935	224.33383	204.95029	-589.06390	184.40901	174.21185	-882.56311	295.97064	144.55276				-640.54681	274.32568	159.43575	-602.28033	274.72809	159.57312	-528.20984	304.20206	146.31906													-794.31042	33.83772	174.86003				-876.12219	-78.89765	141.41621													-719.15436	142.89206	217.67596													-517.67474	-72.89974	143.29080	
22	0.420				-685.91394	269.55670	744.55054													-656.96332	19.34024	519.25201													-546.78595	214.18491	165.30391				-678.47070	154.19696	158.17119							-795.66833	180.59846	184.54810	-762.29578	224.23734	205.58527	-588.97937	184.49406	174.40631	-882.64526	296.22528	144.74236				-640.57935	274.38858	159.51448	-602.25757	274.73059	159.60088	-528.37677	304.06308	146.32130													-794.34991	33.68077	174.85924				-876.14905	-78.79788	141.54057													-719.27826	143.12927	217.44537													-517.67474	-72.89974	143.29080	
